# xmcd
#
# Track frame offsets: 
#        187
#        9562
#        24562
#        37537
#        48112
#        67462
#        87225
#        163500
#
# Disc length: 2345 seconds
#
# Revision: 2
# Processed by: cddbd v1.5.1PL0 Copyright (c) Steve Scherf et al.
# Submitted via: ExactAudioCopy v0.95a5
#
DISCID=58092708
DTITLE=Eric Clapton - History Of [CD1]
DYEAR=1972
DGENRE=Blues
TTITLE0=I Ain't Got You
TTITLE1=Hideaway
TTITLE2=Tales Of Brave Ulysses
TTITLE3=I Want to Know
TTITLE4=Sunshine Of Your Love
TTITLE5=Crossroads
TTITLE6=Spoonful
TTITLE7=Badge
EXTD=YEAR: 1972
EXTT0=
EXTT1=
EXTT2=
EXTT3=
EXTT4=
EXTT5=
EXTT6=
EXTT7=
PLAYORDER=
